# xmcd
# 
# Track frame offsets:
#     150
#     16707
#     36392
#     52789
#     68160
#     84490
#     96247
#     115795
#     132120
#     147847
#     164645
#     179345
# 
# Disc length: 2566
# 
# Revision: 0
# Processed by: cddbd v1.5.2PL0 Copyright (c) Steve Scherf et al.
# Submitted via: fre:ac v1.0.31
# 
DISCID=9a0a040c
DTITLE=มนต์สิทธิ์ คำสร้อย ชุดกำลังใจ - ชุดที่5
DYEAR=1999
DGENRE=Folk
TTITLE0=กำลังใจ
TTITLE1=ในฝัน
TTITLE2=ฝากเพลงถึงเธอ
TTITLE3=แอบรักแอบมอง
TTITLE4=สี่ปีที่คอย
TTITLE5=หยาดน้ำค้างหยดน้ำตา
TTITLE6=อกพี่ยังคอย
TTITLE7=ลืมไม่ลง
TTITLE8=ครูลำดวน
TTITLE9=จดหมายพ่ายรัก
TTITLE10=ทนหนาวอีกปี
TTITLE11=เบิ่งโขง อยากโหลดเพลงนี้
EXTD=populärer Thailändischer Sänger
EXTT0=Moral
EXTT1=Traum
EXTT2=Lass ihr das Lied
EXTT3=heimlich gerne piepsen
EXTT4=vier Jahre
EXTT5=Tropfen der Tränen
EXTT6=Ich warte immer noch
EXTT7=vergiss es
EXTT8=Lehrer Lamduan
EXTT9=Liebesbrief
EXTT10=Kalter Winter wieder
EXTT11=Dieser Lieddownload
PLAYORDER=
